Patient4_TMGait_0pt3_01_right_14_GRF.mot
version=1
nRows=77
nColumns=19
inDegrees=no
endheader
time	F1x	F1y	F1z	M1x	M1y	M1z	F2x	F2y	F2z	M2x	M2y	M2z	EC1x	EC1y	EC1z	EC2x	EC2y	EC2z
25.03	-4.0701	724.6295	44.6308	-289.9674	-44.4468	716.2044	4.9554	6.2397	-1.3789	1.5517	-0.18599	0.11431	-0.0592	0.0182	-0.0073	-0.0462	0.0165	0.9585
25.0488	-3.938	742.9189	44.8388	-297.0234	-44.0458	730.7195	3.2397	4.4987	-0.97884	1.1775	-0.022327	0.38828	-0.0592	0.0182	-0.0073	-0.0462	0.0165	0.9585
25.0676	-3.9167	765.3598	45.5501	-305.7171	-44.1556	749.0725	1.7872	3.0457	-0.62401	0.86531	0.10305	0.66278	-0.0592	0.0182	-0.0073	-0.0462	0.0165	0.9585
25.0864	-3.9636	790.635	46.7538	-315.5275	-44.7889	770.1146	0.68019	1.9615	-0.34428	0.63381	0.18889	0.91409	-0.0592	0.0182	-0.0073	-0.0462	0.0165	0.9585
25.1051	-3.9863	816.665	48.2849	-325.6291	-45.7759	791.8666	-0.088246	1.2329	-0.1451	0.47981	0.24311	1.1295	-0.0592	0.0182	-0.0073	-0.0462	0.0165	0.9585
25.1239	-3.8349	840.8446	49.8952	-334.9925	-46.8301	811.7835	-0.57273	0.79073	-0.020057	0.38588	0.27895	1.2904	-0.0592	0.0182	-0.0073	-0.0462	0.0165	0.9585
25.1427	-3.3235	860.4297	51.329	-342.5336	-47.6325	827.17	-0.8465	0.53138	0.046429	0.32437	0.30389	1.3637	-0.0592	0.0182	-0.0073	-0.0462	0.0165	0.9585
25.1615	-2.2925	872.9746	52.3759	-347.2852	-47.9122	835.6458	-0.97773	0.33442	0.071944	0.26248	0.32055	1.3079	-0.0592	0.0182	-0.0073	-0.0462	0.0165	0.9585
25.1803	-0.63995	876.7164	52.9055	-348.5496	-47.4976	835.5356	-1.0205	0.075973	0.072289	0.16547	0.32799	1.0671	-0.0592	0.0182	-0.0073	-0.0462	0.0165	0.9585
25.1991	1.6825	870.8992	52.872	-346.0272	-46.3189	826.1688	-1.0113	-0.36272	0.059376	-0.0007821	0.32446	0.57014	-0.0592	0.0182	-0.0073	-0.0462	0.0165	0.9585
25.2179	4.6525	856.0211	52.2879	-339.9152	-44.3924	808.0823	-0.96999	-1.0839	0.044106	-0.266	0.30708	-0.25666	-0.0592	0.0182	-0.0073	-0.0462	0.0165	0.9585
25.2366	8.1775	833.8583	51.2095	-330.9179	-41.8088	783.0246	-0.90156	-2.1582	0.03921	-0.65075	0.268	-1.4707	-0.0592	0.0182	-0.0073	-0.0462	0.0165	0.9585
25.2554	12.145	807.2052	49.7419	-320.1484	-38.7107	753.6807	-0.79366	-3.5972	0.058212	-1.1563	0.1932	-3.0801	-0.0592	0.0182	-0.0073	-0.0462	0.0165	0.9585
25.2742	16.4682	779.402	48.0388	-308.9395	-35.2708	723.1939	-0.61899	-5.3107	0.11616	-1.75	0.061462	-4.9862	-0.0592	0.0182	-0.0073	-0.0462	0.0165	0.9585
25.293	21.0902	753.7356	46.2782	-298.6031	-31.668	694.6109	-0.34178	-7.0592	0.22622	-2.3478	-0.15572	-6.9333	-0.0592	0.0182	-0.0073	-0.0462	0.0165	0.9585
25.3118	25.9727	732.8669	44.6374	-290.1991	-28.0693	670.3708	0.076656	-8.3889	0.39862	-2.7911	-0.48432	-8.4403	-0.0592	0.0182	-0.0073	-0.0462	0.0165	0.9585
25.3306	31.0688	718.3863	43.2627	-284.3543	-24.6142	651.9277	0.66671	-8.5651	0.6399	-2.8257	-0.9402	-8.7265	-0.0592	0.0182	-0.0073	-0.0462	0.0165	0.9585
25.3494	36.2782	710.5252	42.2661	-281.1394	-21.4325	639.5276	1.4324	-6.5261	0.94216	-2.0855	-1.5101	-6.6632	-0.0592	0.0182	-0.0073	-0.0462	0.0165	0.9585
25.3681	41.427	708.14	41.7198	-280.0667	-18.6487	632.2249	2.3313	-0.88097	1.2742	-0.091749	-2.1387	-0.76742	-0.0592	0.0182	-0.0073	-0.0462	0.0165	0.9585
25.3869	46.2679	708.9875	41.6342	-280.2073	-16.3631	628.1469	3.2479	10.0054	1.5696	3.7157	-2.7097	10.7075	-0.0592	0.0182	-0.0073	-0.0462	0.0165	0.9585
25.4057	50.4615	710.1196	41.9576	-280.3555	-14.6677	624.8558	3.9562	27.7893	1.7178	9.8992	-3.021	29.5466	-0.0592	0.0182	-0.0073	-0.0462	0.0165	0.9585
25.4245	53.5796	708.3324	42.5803	-279.2162	-13.646	619.7378	4.0862	53.7381	1.5544	18.8795	-2.7633	57.1435	-0.0592	0.0182	-0.0073	-0.0462	0.0165	0.9585
25.4433	55.1643	700.6577	43.3189	-275.6089	-13.3341	610.4107	3.1092	88.0708	0.85541	30.7058	-1.513	93.7963	-0.0592	0.0182	-0.0073	-0.0462	0.0165	0.9585
25.4621	54.8251	684.8263	43.915	-268.6547	-13.6857	595.0674	0.48115	129.2519	-0.64649	44.814	1.2003	137.9508	-0.0592	0.0182	-0.0073	-0.0462	0.0165	0.9585
25.4809	52.4037	659.7462	44.081	-257.9689	-14.5468	572.8069	-3.7856	173.8184	-3.1817	59.9739	5.6064	185.9516	-0.0592	0.0182	-0.0073	-0.0462	0.0165	0.9585
25.4996	48.1423	625.9574	43.5973	-243.8329	-15.6657	543.9658	-9.128	217.9248	-6.6984	74.847	11.4312	233.6232	-0.0592	0.0182	-0.0073	-0.0462	0.0165	0.9585
25.5184	42.7003	585.6138	42.3971	-227.1692	-16.7456	510.1038	-14.9091	260.0037	-10.8677	88.8953	18.0884	279.1932	-0.0592	0.0182	-0.0073	-0.0462	0.0165	0.9585
25.5372	36.9776	541.6291	40.5454	-209.1931	-17.4895	473.3341	-20.6465	300.3188	-15.3434	102.2206	25.0378	322.8716	-0.0592	0.0182	-0.0073	-0.0462	0.0165	0.9585
25.556	31.8036	496.6591	38.1641	-190.9985	-17.6607	435.577	-26.0062	339.4807	-19.8162	115.0448	31.8413	365.2559	-0.0592	0.0182	-0.0073	-0.0462	0.0165	0.9585
25.5748	27.6565	452.542	35.4196	-173.33	-17.1878	398.1907	-30.7455	377.5448	-24.0274	127.3976	38.1516	406.3684	-0.0592	0.0182	-0.0073	-0.0462	0.0165	0.9585
25.5936	24.6181	410.3734	32.506	-156.615	-16.1715	362.0515	-34.6498	413.8067	-27.8127	139.0495	43.7275	445.438	-0.0592	0.0182	-0.0073	-0.0462	0.0165	0.9585
25.6124	22.508	370.8411	29.6021	-141.1021	-14.8037	327.8022	-37.5444	447.0557	-31.0936	149.6059	48.4268	481.1629	-0.0592	0.0182	-0.0073	-0.0462	0.0165	0.9585
25.6311	21.0347	334.4717	26.8408	-126.9652	-13.2892	296.0041	-39.3915	476.0661	-33.8017	158.6807	52.1636	512.2326	-0.0592	0.0182	-0.0073	-0.0462	0.0165	0.9585
25.6499	19.9244	301.7008	24.3136	-114.3369	-11.8	267.1478	-40.2851	500.1526	-35.8443	166.0803	54.8726	537.9147	-0.0592	0.0182	-0.0073	-0.0462	0.0165	0.9585
25.6687	19.0128	272.7923	22.0678	-103.2846	-10.4361	241.5561	-40.3578	519.3894	-37.1699	171.866	56.5447	558.2656	-0.0592	0.0182	-0.0073	-0.0462	0.0165	0.9585
25.6875	18.2628	247.7147	20.1012	-93.7634	-9.2125	219.2684	-39.7425	534.4209	-37.8497	176.278	57.2972	573.9335	-0.0592	0.0182	-0.0073	-0.0462	0.0165	0.9585
25.7063	17.7241	226.0893	18.3765	-85.596	-8.0873	199.9982	-38.5809	546.187	-38.0687	179.6425	57.3648	585.8807	-0.0592	0.0182	-0.0073	-0.0462	0.0165	0.9585
25.7251	17.4392	207.3341	16.847	-78.5322	-7.0138	183.2629	-37.0165	555.7666	-38.0379	182.3283	57.0077	595.2226	-0.0592	0.0182	-0.0073	-0.0462	0.0165	0.9585
25.7439	17.3794	190.9132	15.4783	-72.3474	-5.9829	168.6074	-35.1775	564.2501	-37.9263	184.7083	56.4333	603.0982	-0.0592	0.0182	-0.0073	-0.0462	0.0165	0.9585
25.7626	17.4509	176.4959	14.2607	-66.9054	-5.0297	155.7487	-33.1692	572.5378	-37.8524	187.0907	55.787	610.4606	-0.0592	0.0182	-0.0073	-0.0462	0.0165	0.9585
25.7814	17.5372	163.9348	13.2095	-62.1461	-4.2149	144.5479	-31.0677	581.1848	-37.8941	189.6662	55.1602	617.9058	-0.0592	0.0182	-0.0073	-0.0462	0.0165	0.9585
25.8002	17.5119	153.0788	12.354	-58.0132	-3.6098	134.8573	-28.9209	590.3951	-38.112	192.5042	54.6208	625.6552	-0.0592	0.0182	-0.0073	-0.0462	0.0165	0.9585
25.819	17.2266	143.5654	11.7103	-54.3722	-3.2808	126.3493	-26.7676	600.1747	-38.5748	195.6025	54.2451	633.7154	-0.0592	0.0182	-0.0073	-0.0462	0.0165	0.9585
25.8378	16.5203	134.7286	11.2588	-50.9759	-3.2663	118.435	-24.6671	610.6137	-39.3584	198.9796	54.1244	642.178	-0.0592	0.0182	-0.0073	-0.0462	0.0165	0.9585
25.8566	15.2461	125.6922	10.941	-47.4992	-3.5684	110.3504	-22.7172	622.1586	-40.531	202.7645	54.3616	651.5128	-0.0592	0.0182	-0.0073	-0.0462	0.0165	0.9585
25.8754	13.3228	115.6174	10.6649	-43.6327	-4.1355	101.3749	-21.0477	635.667	-42.1514	207.2138	55.0653	662.621	-0.0592	0.0182	-0.0073	-0.0462	0.0165	0.9585
25.8941	10.7706	103.972	10.3183	-39.1836	-4.8601	91.0609	-19.7638	652.1283	-44.2658	212.623	56.329	676.541	-0.0592	0.0182	-0.0073	-0.0462	0.0165	0.9585
25.9129	7.7339	90.6918	9.7984	-34.1348	-5.5972	79.37	-18.9125	672.1965	-46.8879	219.1784	58.1996	693.9691	-0.0592	0.0182	-0.0073	-0.0462	0.0165	0.9585
25.9317	4.4754	76.2119	9.0432	-28.6545	-6.1942	66.6966	-18.5104	695.7861	-49.9634	226.8313	60.6453	714.8581	-0.0592	0.0182	-0.0073	-0.0462	0.0165	0.9585
25.9505	1.3733	61.3131	8.037	-23.038	-6.5009	53.7293	-18.5625	721.9527	-53.3499	235.2625	63.5405	738.292	-0.0592	0.0182	-0.0073	-0.0462	0.0165	0.9585
25.9693	-1.144	46.91	6.8052	-17.6264	-6.3858	41.2577	-19.0709	749.1112	-56.8276	243.9538	66.6765	762.7077	-0.0592	0.0182	-0.0073	-0.0462	0.0165	0.9585
25.9881	-2.7095	33.8585	5.4142	-12.7355	-5.7738	29.9991	-19.998	775.401	-60.1396	252.308	69.7874	786.2584	-0.0592	0.0182	-0.0073	-0.0462	0.0165	0.9585
26.0069	-3.2032	22.8309	3.9838	-8.6122	-4.7235	20.5051	-21.2085	799.0186	-63.0362	259.7588	72.575	807.1243	-0.0592	0.0182	-0.0073	-0.0462	0.0165	0.9585
26.0256	-2.9403	14.2832	2.6844	-5.4193	-3.4972	13.1479	-22.4565	818.4699	-65.2979	265.8519	74.7367	823.7533	-0.0592	0.0182	-0.0073	-0.0462	0.0165	0.9585
26.0444	-2.3136	8.2049	1.6355	-3.1468	-2.3484	7.9088	-23.4342	832.7299	-66.7719	270.2874	76.0219	835.0326	-0.0592	0.0182	-0.0073	-0.0462	0.0165	0.9585
26.0632	-1.5879	4.1915	0.86184	-1.6389	-1.4006	4.4169	-23.8438	841.2509	-67.4141	272.9137	76.2949	840.3249	-0.0592	0.0182	-0.0073	-0.0462	0.0165	0.9585
26.082	-0.92346	1.6641	0.33577	-0.67821	-0.69071	2.1501	-23.4656	843.8788	-67.2775	273.6982	75.5407	839.4118	-0.0592	0.0182	-0.0073	-0.0462	0.0165	0.9585
26.1008	-0.40208	0.026114	0.0056262	-0.042688	-0.2026	0.58175	-22.2004	840.8609	-66.4522	272.7337	73.8195	832.5043	-0.0592	0.0182	-0.0073	-0.0462	0.0165	0.9585
26.1196	-0.044741	-1.2451	-0.19045	0.46285	0.10963	-0.75101	-20.0368	832.9081	-65.0374	270.2624	71.2276	820.2906	-0.0592	0.0182	-0.0073	-0.0462	0.0165	0.9585
26.1384	0.16758	-2.5305	-0.31349	0.97988	0.3064	-2.1844	-16.9986	821.1636	-63.1425	266.6636	67.8773	803.8916	-0.0592	0.0182	-0.0073	-0.0462	0.0165	0.9585
26.1571	0.27857	-4.0247	-0.41428	1.5776	0.45066	-3.8705	-13.1346	807.0241	-60.8977	262.3919	63.9051	784.6824	-0.0592	0.0182	-0.0073	-0.0462	0.0165	0.9585
26.1759	0.35243	-5.6811	-0.52504	2.2339	0.59705	-5.7301	-8.5157	791.8692	-58.4571	257.8861	59.4777	764.0365	-0.0592	0.0182	-0.0073	-0.0462	0.0165	0.9585
26.1947	0.46787	-7.1615	-0.65957	2.8148	0.78624	-7.395	-3.2443	776.8168	-55.986	253.4895	54.7799	743.107	-0.0592	0.0182	-0.0073	-0.0462	0.0165	0.9585
26.2135	0.7126	-7.7842	-0.80775	3.0512	1.0378	-8.1401	2.5149	762.5198	-53.6449	249.3821	50.0144	722.6594	-0.0592	0.0182	-0.0073	-0.0462	0.0165	0.9585
26.2323	1.178	-6.4737	-0.92873	2.5193	1.3428	-6.8303	8.5084	749.0525	-51.5687	245.5418	45.3941	702.9644	-0.0592	0.0182	-0.0073	-0.0462	0.0165	0.9585
26.2511	1.9525	-1.7386	-0.94514	0.63098	1.6514	-1.9	14.4035	735.943	-49.8441	241.7624	41.1154	683.8197	-0.0592	0.0182	-0.0073	-0.0462	0.0165	0.9585
26.2699	3.1024	8.2694	-0.73871	-3.3447	1.8576	8.5958	19.8132	722.2829	-48.4936	237.6951	37.3363	664.6466	-0.0592	0.0182	-0.0073	-0.0462	0.0165	0.9585
26.2886	4.6427	25.5717	-0.14994	-10.2062	1.7906	26.782	24.3329	706.8117	-47.477	232.8826	34.1708	644.5485	-0.0592	0.0182	-0.0073	-0.0462	0.0165	0.9585
26.3074	6.506	51.9799	1.0163	-20.6661	1.2114	54.5619	27.5829	688.055	-46.688	226.8131	31.668	622.4181	-0.0592	0.0182	-0.0073	-0.0462	0.0165	0.9585
26.3262	8.4542	88.4671	2.9722	-35.1019	-0.1972	92.9619	29.2423	664.5614	-45.9501	219.0054	29.8036	597.1324	-0.0592	0.0182	-0.0073	-0.0462	0.0165	0.9585
26.345	9.8566	134.3539	5.8798	-53.2333	-2.8464	141.2728	29.0883	635.1916	-45.0129	209.1082	28.4625	567.7848	-0.0592	0.0182	-0.0073	-0.0462	0.0165	0.9585
26.3638	9.7929	186.6073	9.7694	-73.8501	-7.1079	196.3136	27.0994	599.5211	-43.5945	197.0271	27.4392	534.0014	-0.0592	0.0182	-0.0073	-0.0462	0.0165	0.9585
26.3826	8.0134	241.0848	14.4718	-95.3181	-12.8753	253.6938	23.5644	558.3495	-41.509	183.0782	26.501	496.3582	-0.0592	0.0182	-0.0073	-0.0462	0.0165	0.9585
26.4014	4.9143	295.3201	19.5157	-116.6726	-19.4861	310.7433	19.0586	513.7452	-38.7725	167.9894	25.4796	456.4429	-0.0592	0.0182	-0.0073	-0.0462	0.0165	0.9585
26.4201	1.0933	348.1499	24.3371	-137.4692	-26.1049	366.1792	14.2573	468.228	-35.5355	152.6289	24.2748	416.2012	-0.0592	0.0182	-0.0073	-0.0462	0.0165	0.9585
26.4389	-2.9108	398.3483	28.4611	-157.2325	-32.0119	418.6794	9.7343	423.9789	-31.9716	137.7466	22.8247	377.3139	-0.0592	0.0182	-0.0073	-0.0462	0.0165	0.9585
26.4577	-6.6555	444.3205	31.6032	-175.3269	-36.7247	466.5372	5.8764	382.5108	-28.2827	123.8622	21.1405	340.9342	-0.0592	0.0182	-0.0073	-0.0462	0.0165	0.9585
